<mxfile host="app.diagrams.net" modified="2024-01-27T18:12:01.061Z" agent="Mozilla/5.0 (Macintosh; Intel Mac OS X 10_15_7) AppleWebKit/537.36 (KHTML, like Gecko) Chrome/120.0.0.0 Safari/537.36" version="23.0.2" etag="m6t2bCbrklnmDG_vi6II" type="github">
  <diagram name="Page-1" id="xi6DzMgTc8p9rZ6SVRbW">
    <mxGraphModel>
      <root>
        <mxCell id="0" />
        <mxCell id="1" parent="0" />
      </root>
    </mxGraphModel>
  </diagram>
</mxfile>
